<mxfile host="65bd71144e">
    <diagram name="페이지-1" id="5nTI_Muhh-gSo83pIhVt">
        <mxGraphModel dx="820" dy="311" grid="1" gridSize="10" guides="1" tooltips="1" connect="1" arrows="1" fold="1" page="1" pageScale="1" pageWidth="827" pageHeight="1169" math="0" shadow="0">
            <root>
                <mxCell id="0"/>
                <mxCell id="1" parent="0"/>
                <mxCell id="4fSqnYkHRseZqkGIF2Yh-1" value="&lt;div style=&quot;text-align: justify;&quot;&gt;&lt;br&gt;&lt;/div&gt;" style="rounded=0;whiteSpace=wrap;html=1;align=left;" parent="1" vertex="1">
                    <mxGeometry x="80" y="60" width="880" height="560" as="geometry"/>
                </mxCell>
                <mxCell id="4fSqnYkHRseZqkGIF2Yh-2" value="&lt;font style=&quot;font-size: 16px;&quot;&gt;Models&lt;/font&gt;" style="text;html=1;strokeColor=none;fillColor=none;align=center;verticalAlign=middle;whiteSpace=wrap;rounded=0;" parent="1" vertex="1">
                    <mxGeometry x="100" y="80" width="60" height="30" as="geometry"/>
                </mxCell>
                <mxCell id="4fSqnYkHRseZqkGIF2Yh-3" value="&lt;font style=&quot;font-size: 16px;&quot;&gt;Hotel&lt;/font&gt;" style="rounded=0;whiteSpace=wrap;html=1;" parent="1" vertex="1">
                    <mxGeometry x="180" y="190" width="160" height="120" as="geometry"/>
                </mxCell>
                <mxCell id="4fSqnYkHRseZqkGIF2Yh-4" value="&lt;font style=&quot;font-size: 16px;&quot;&gt;Reservation&lt;br&gt;Book&lt;br&gt;&lt;/font&gt;" style="rounded=0;whiteSpace=wrap;html=1;" parent="1" vertex="1">
                    <mxGeometry x="450" y="190" width="160" height="120" as="geometry"/>
                </mxCell>
                <mxCell id="4fSqnYkHRseZqkGIF2Yh-5" value="&lt;font style=&quot;font-size: 16px;&quot;&gt;Reservation&lt;br&gt;&lt;/font&gt;" style="rounded=0;whiteSpace=wrap;html=1;" parent="1" vertex="1">
                    <mxGeometry x="720" y="190" width="160" height="120" as="geometry"/>
                </mxCell>
                <mxCell id="4fSqnYkHRseZqkGIF2Yh-6" value="&lt;font style=&quot;font-size: 16px;&quot;&gt;Room ID&lt;br&gt;&lt;/font&gt;" style="rounded=0;whiteSpace=wrap;html=1;" parent="1" vertex="1">
                    <mxGeometry x="720" y="400" width="160" height="120" as="geometry"/>
                </mxCell>
                <mxCell id="4fSqnYkHRseZqkGIF2Yh-7" value="" style="endArrow=open;endFill=1;endSize=12;html=1;rounded=0;exitX=1;exitY=0.5;exitDx=0;exitDy=0;entryX=0;entryY=0.5;entryDx=0;entryDy=0;" parent="1" source="4fSqnYkHRseZqkGIF2Yh-3" target="4fSqnYkHRseZqkGIF2Yh-4" edge="1">
                    <mxGeometry width="160" relative="1" as="geometry">
                        <mxPoint x="330" y="370" as="sourcePoint"/>
                        <mxPoint x="490" y="370" as="targetPoint"/>
                    </mxGeometry>
                </mxCell>
                <mxCell id="4fSqnYkHRseZqkGIF2Yh-8" value="" style="endArrow=open;endFill=1;endSize=12;html=1;rounded=0;exitX=1;exitY=0.5;exitDx=0;exitDy=0;entryX=0;entryY=0.5;entryDx=0;entryDy=0;" parent="1" source="4fSqnYkHRseZqkGIF2Yh-4" target="4fSqnYkHRseZqkGIF2Yh-5" edge="1">
                    <mxGeometry width="160" relative="1" as="geometry">
                        <mxPoint x="350" y="260" as="sourcePoint"/>
                        <mxPoint x="460" y="260" as="targetPoint"/>
                    </mxGeometry>
                </mxCell>
                <mxCell id="4fSqnYkHRseZqkGIF2Yh-9" value="" style="endArrow=open;endFill=1;endSize=12;html=1;rounded=0;exitX=0.5;exitY=1;exitDx=0;exitDy=0;entryX=0.5;entryY=0;entryDx=0;entryDy=0;" parent="1" source="4fSqnYkHRseZqkGIF2Yh-5" target="4fSqnYkHRseZqkGIF2Yh-6" edge="1">
                    <mxGeometry width="160" relative="1" as="geometry">
                        <mxPoint x="620" y="260" as="sourcePoint"/>
                        <mxPoint x="730" y="260" as="targetPoint"/>
                    </mxGeometry>
                </mxCell>
                <mxCell id="2" value="1" style="text;html=1;strokeColor=none;fillColor=none;align=center;verticalAlign=middle;whiteSpace=wrap;rounded=0;" parent="1" vertex="1">
                    <mxGeometry x="407" y="216" width="60" height="30" as="geometry"/>
                </mxCell>
                <mxCell id="5" value="*" style="text;html=1;strokeColor=none;fillColor=none;align=center;verticalAlign=middle;whiteSpace=wrap;rounded=0;" parent="1" vertex="1">
                    <mxGeometry x="670" y="216" width="60" height="30" as="geometry"/>
                </mxCell>
                <mxCell id="6" value="1" style="text;html=1;strokeColor=none;fillColor=none;align=center;verticalAlign=middle;whiteSpace=wrap;rounded=0;" parent="1" vertex="1">
                    <mxGeometry x="790" y="370" width="60" height="30" as="geometry"/>
                </mxCell>
                <mxCell id="7" value="" style="shape=actor;whiteSpace=wrap;html=1;" vertex="1" parent="1">
                    <mxGeometry x="110" y="1030" width="150" height="220" as="geometry"/>
                </mxCell>
                <mxCell id="8" value="&lt;div style=&quot;text-align: justify;&quot;&gt;&lt;br&gt;&lt;/div&gt;" style="rounded=0;whiteSpace=wrap;html=1;align=left;" vertex="1" parent="1">
                    <mxGeometry x="407" y="900" width="880" height="560" as="geometry"/>
                </mxCell>
                <mxCell id="9" value="&lt;font style=&quot;font-size: 15px;&quot;&gt;Reservoom&lt;/font&gt;" style="text;html=1;strokeColor=none;fillColor=default;align=center;verticalAlign=middle;whiteSpace=wrap;rounded=0;" vertex="1" parent="1">
                    <mxGeometry x="440" y="920" width="60" height="30" as="geometry"/>
                </mxCell>
                <mxCell id="10" value="User" style="text;html=1;strokeColor=none;fillColor=none;align=center;verticalAlign=middle;whiteSpace=wrap;rounded=0;fontSize=15;" vertex="1" parent="1">
                    <mxGeometry x="155" y="1270" width="60" height="30" as="geometry"/>
                </mxCell>
                <mxCell id="11" value="Make Reservation" style="ellipse;whiteSpace=wrap;html=1;fontSize=15;fillColor=default;" vertex="1" parent="1">
                    <mxGeometry x="500" y="1020" width="170" height="80" as="geometry"/>
                </mxCell>
                <mxCell id="12" value="View Reservations" style="ellipse;whiteSpace=wrap;html=1;fontSize=15;fillColor=default;" vertex="1" parent="1">
                    <mxGeometry x="500" y="1220" width="170" height="80" as="geometry"/>
                </mxCell>
                <mxCell id="13" value="Display Reservation Conflict Error" style="ellipse;whiteSpace=wrap;html=1;fontSize=15;fillColor=default;" vertex="1" parent="1">
                    <mxGeometry x="1000" y="970" width="170" height="80" as="geometry"/>
                </mxCell>
                <mxCell id="14" value="" style="endArrow=none;html=1;fontSize=15;entryX=0;entryY=0.5;entryDx=0;entryDy=0;exitX=0.9;exitY=0.5;exitDx=0;exitDy=0;exitPerimeter=0;" edge="1" parent="1" source="7" target="11">
                    <mxGeometry width="50" height="50" relative="1" as="geometry">
                        <mxPoint x="280" y="1170" as="sourcePoint"/>
                        <mxPoint x="330" y="1120" as="targetPoint"/>
                    </mxGeometry>
                </mxCell>
                <mxCell id="15" value="" style="endArrow=none;html=1;fontSize=15;entryX=0;entryY=0.5;entryDx=0;entryDy=0;exitX=1;exitY=0.75;exitDx=0;exitDy=0;" edge="1" parent="1" source="7" target="12">
                    <mxGeometry width="50" height="50" relative="1" as="geometry">
                        <mxPoint x="280" y="1170" as="sourcePoint"/>
                        <mxPoint x="360" y="1200" as="targetPoint"/>
                    </mxGeometry>
                </mxCell>
                <mxCell id="17" value="" style="endArrow=classic;html=1;fontSize=15;exitX=1;exitY=0.5;exitDx=0;exitDy=0;entryX=0;entryY=0.5;entryDx=0;entryDy=0;dashed=1;dashPattern=8 8;" edge="1" parent="1" source="11" target="13">
                    <mxGeometry relative="1" as="geometry">
                        <mxPoint x="830" y="1040" as="sourcePoint"/>
                        <mxPoint x="930" y="1040" as="targetPoint"/>
                    </mxGeometry>
                </mxCell>
                <mxCell id="18" value="&amp;lt;&amp;lt;extend&amp;gt;&amp;gt;" style="edgeLabel;resizable=0;html=1;align=center;verticalAlign=middle;fontSize=15;fillColor=default;" connectable="0" vertex="1" parent="17">
                    <mxGeometry relative="1" as="geometry"/>
                </mxCell>
            </root>
        </mxGraphModel>
    </diagram>
</mxfile>